# xmcd
#
# Track frame offsets: 
#        222
#        18557
#        32532
#
# Disc length: 660 seconds
#
# Revision: 0
# Processed by: cddbd v1.5.1PL2 Copyright (c) Steve Scherf et al.
# Submitted via: ExactAudioCopy v0.95b3
#
DISCID=19029203
DTITLE=Nanci Griffith - It's A Hard Life Wherever You Go
DYEAR=1989
DGENRE=Country
TTITLE0=It's A Hard Life Wherever You Go
TTITLE1=Gulf Coast Highway
TTITLE2=If Wishes Were Changes
EXTD=
EXTT0=
EXTT1=
EXTT2=
PLAYORDER=
